<svg width="32" height="32" viewBox="0 0 32 32" fill="none" xmlns="http://www.w3.org/2000/svg">
<g id="ic:baseline-apple">
<path id="Vector" d="M22.6638 27.0371C21.3716 28.3036 19.9606 28.1036 18.6024 27.5037C17.1651 26.8904 15.8464 26.8638 14.33 27.5037C12.4311 28.3303 11.429 28.0903 10.2949 27.0371C3.85994 20.3313 4.80937 10.1192 12.1147 9.74594C13.8948 9.83926 15.1344 10.7325 16.1761 10.8125C17.7321 10.4925 19.2222 9.57263 20.8837 9.69261C22.8748 9.85259 24.3781 10.6525 25.3671 12.0923C21.2529 14.5853 22.2287 20.0646 26 21.5978C25.2484 23.5975 24.2726 25.5839 22.6506 27.0504L22.6638 27.0371ZM16.0442 9.66595C15.8464 6.69299 18.2332 4.23997 20.976 4C21.3584 7.43957 17.8903 9.99924 16.0442 9.66595Z" fill="#111111"/>
</g>
</svg>
