<svg width="23" height="23" viewBox="0 0 23 23" fill="none" xmlns="http://www.w3.org/2000/svg">
<g id="logos:google-icon" clip-path="url(#clip0_82_160)">
<path id="Vector" d="M22.9866 11.7152C22.9866 10.7729 22.9084 10.0852 22.739 9.37216H11.7291V13.6252H18.1917C18.0614 14.6822 17.3578 16.2739 15.7943 17.3435L15.7723 17.4859L19.2535 20.1215L19.4947 20.145C21.7097 18.1458 22.9866 15.2042 22.9866 11.7152Z" fill="#4285F4"/>
<path id="Vector_2" d="M11.729 22.921C14.8952 22.921 17.5532 21.9022 19.4946 20.145L15.7942 17.3435C14.804 18.0184 13.4749 18.4895 11.729 18.4895C8.62801 18.4895 5.99606 16.4904 5.05785 13.7271L4.92032 13.7386L1.30057 16.4763L1.25323 16.605C3.18159 20.3487 7.14258 22.921 11.729 22.921Z" fill="#34A853"/>
<path id="Vector_3" d="M5.05786 13.7271C4.8103 13.0141 4.66703 12.25 4.66703 11.4605C4.66703 10.671 4.8103 9.90695 5.04483 9.19387L5.03828 9.04199L1.37316 6.26022L1.25325 6.31597C0.458481 7.86952 0.00244141 9.6141 0.00244141 11.4605C0.00244141 13.3069 0.458481 15.0514 1.25325 16.605L5.05786 13.7271Z" fill="#FBBC05"/>
<path id="Vector_4" d="M11.729 4.43136C13.931 4.43136 15.4163 5.36093 16.2633 6.13775L19.5728 2.97973C17.5402 1.13332 14.8952 0 11.729 0C7.14258 0 3.18159 2.57223 1.25323 6.31596L5.04482 9.19386C5.99606 6.43061 8.62801 4.43136 11.729 4.43136Z" fill="#EB4335"/>
</g>
<defs>
<clipPath id="clip0_82_160">
<rect width="23" height="23" fill="white"/>
</clipPath>
</defs>
</svg>
