<svg width="28" height="28" viewBox="0 0 28 28" fill="none" xmlns="http://www.w3.org/2000/svg">
<g id="material-symbols:settings">
<path id="Vector" d="M10.8212 21.8713L10.784 21.5742L10.5045 21.4667C10.2787 21.3798 10.0672 21.2761 9.8695 21.156C9.65762 21.0273 9.45078 20.8893 9.24898 20.742L9.02087 20.5755L8.76051 20.6849L5.69551 21.9727L2.92911 17.1944L5.58105 15.1861L5.81581 15.0083L5.77417 14.7168C5.75779 14.6022 5.75002 14.4944 5.75002 14.3932V13.6068C5.75002 13.5056 5.75779 13.3978 5.77417 13.2832L5.81581 12.9917L5.58105 12.8139L2.92911 10.8056L5.69551 6.02732L8.76051 7.31513L9.02034 7.4243L9.24828 7.25853C9.4483 7.11306 9.65782 6.97639 9.87696 6.84856C10.0924 6.72288 10.3059 6.61632 10.5173 6.5282L10.7852 6.4166L10.8212 6.12868L11.2331 2.83333H16.767L17.1789 6.12868L17.216 6.42584L17.4955 6.53334C17.7214 6.62021 17.9329 6.72385 18.1305 6.84397C18.3424 6.97271 18.5493 7.11072 18.7511 7.25802L18.9792 7.42452L19.2395 7.31513L22.3045 6.02731L25.0709 10.8056L22.419 12.8139L22.1842 12.9917L22.2259 13.2832C22.2423 13.3978 22.25 13.5056 22.25 13.6068V14.3932C22.25 14.4684 22.2385 14.5536 22.2109 14.6501L22.1169 14.9794L22.3898 15.1861L25.0418 17.1944L22.276 21.9715L19.2409 20.6855L18.9805 20.5751L18.7518 20.7415C18.5518 20.8869 18.3422 21.0236 18.1231 21.1514C17.9077 21.2771 17.6942 21.3837 17.4827 21.4718L17.2149 21.5834L17.1789 21.8713L16.767 25.1667H11.2331L10.8212 21.8713ZM14.0584 18.5833C15.3187 18.5833 16.4084 18.1321 17.2994 17.2411L9.97503 14H9.47503C9.47503 14.0001 9.47503 14.0002 9.47503 14.0003C9.47511 15.2585 9.91978 16.3474 10.7999 17.2388C11.6835 18.1338 12.7804 18.5833 14.0584 18.5833Z" fill="#A4E473" stroke="black"/>
</g>
</svg>
